<?xml version="1.0" encoding="utf-8"?>
<!-- Generator: Adobe Illustrator 25.4.1, SVG Export Plug-In . SVG Version: 6.00 Build 0)  -->
<svg version="1.1" id="Layer_1" xmlns="http://www.w3.org/2000/svg" xmlns:xlink="http://www.w3.org/1999/xlink" x="0px" y="0px"
	 viewBox="0 0 30 30" style="enable-background:new 0 0 30 30;" xml:space="preserve">
<style type="text/css">
	.st0{fill:#8E1414;}
</style>
<g>
	<path class="st0" d="M15,0C6.7,0,0,6.7,0,15s6.7,15,15,15s15-6.7,15-15S23.3,0,15,0z M24.4,18.9c0,1-0.2,1.7-0.4,2.3
		c-0.2,0.6-0.6,1.1-1.1,1.7c-0.5,0.5-1.1,0.8-1.7,1.1c-0.6,0.2-1.3,0.4-2.3,0.4s-1.3,0.1-3.9,0.1s-2.9,0-3.9-0.1
		c-1,0-1.7-0.2-2.3-0.4c-0.6-0.2-1.1-0.6-1.7-1.1c-0.5-0.5-0.8-1.1-1.1-1.7c-0.2-0.6-0.4-1.3-0.4-2.3S5.5,17.6,5.5,15s0-2.9,0.1-3.9
		c0-1,0.2-1.7,0.4-2.3c0.2-0.6,0.6-1.1,1.1-1.7C7.6,6.6,8.2,6.3,8.8,6c0.6-0.2,1.3-0.4,2.3-0.4s1.3-0.1,3.9-0.1s2.9,0,3.9,0.1
		c1,0,1.7,0.2,2.3,0.4c0.6,0.2,1.1,0.6,1.7,1.1c0.5,0.5,0.8,1.1,1.1,1.7c0.2,0.6,0.4,1.3,0.4,2.3s0.1,1.3,0.1,3.9
		S24.4,17.9,24.4,18.9z"/>
	<path class="st0" d="M22.4,9.4C22.2,9,22,8.7,21.7,8.3C21.3,8,21,7.8,20.6,7.6c-0.3-0.1-0.8-0.3-1.8-0.3S17.5,7.2,15,7.2
		s-2.8,0-3.8,0.1c-0.9,0-1.4,0.2-1.8,0.3C9,7.8,8.7,8,8.3,8.3C8,8.7,7.8,9,7.6,9.4c-0.1,0.3-0.3,0.8-0.3,1.8S7.2,12.5,7.2,15
		s0,2.8,0.1,3.8c0,0.9,0.2,1.4,0.3,1.8C7.8,21,8,21.3,8.3,21.7C8.7,22,9,22.2,9.4,22.4c0.3,0.1,0.8,0.3,1.8,0.3s1.3,0.1,3.8,0.1
		s2.8,0,3.8-0.1c0.9,0,1.4-0.2,1.8-0.3c0.4-0.2,0.8-0.4,1.1-0.7c0.3-0.3,0.5-0.6,0.7-1.1c0.1-0.3,0.3-0.8,0.3-1.8s0.1-1.3,0.1-3.8
		s0-2.8-0.1-3.8C22.6,10.3,22.5,9.8,22.4,9.4z M15,19.8c-2.7,0-4.8-2.2-4.8-4.8c0-2.7,2.2-4.8,4.8-4.8s4.8,2.2,4.8,4.8
		C19.8,17.7,17.7,19.8,15,19.8z M20,11.1c-0.6,0-1.1-0.5-1.1-1.1s0.5-1.1,1.1-1.1s1.1,0.5,1.1,1.1C21.2,10.6,20.7,11.1,20,11.1z"/>
	<circle class="st0" cx="15" cy="15" r="3.1"/>
</g>
</svg>
