<?xml version="1.0" encoding="utf-8"?>
<!-- Generator: Adobe Illustrator 25.4.1, SVG Export Plug-In . SVG Version: 6.00 Build 0)  -->
<svg version="1.1" id="Layer_1" xmlns="http://www.w3.org/2000/svg" xmlns:xlink="http://www.w3.org/1999/xlink" x="0px" y="0px"
	 viewBox="0 0 30 30" style="enable-background:new 0 0 30 30;" xml:space="preserve">
<style type="text/css">
	.st0{fill-rule:evenodd;clip-rule:evenodd;fill:#8E1414;}
</style>
<path class="st0" d="M15,0C6.7,0,0,6.7,0,15s6.7,15,15,15s15-6.7,15-15S23.3,0,15,0z M23.3,11.8c0,0.2,0,0.3,0,0.5
	c0,5.3-4,11.3-11.3,11.3c-2.2,0-4.3-0.7-6.1-1.8c0.3,0,0.6,0.1,1,0.1c1.9,0,3.6-0.6,4.9-1.7C10,20.2,8.5,19,8,17.4
	c0.2,0,0.5,0.1,0.7,0.1c0.4,0,0.7,0,1-0.1c-1.8-0.4-3.2-2-3.2-3.9c0,0,0,0,0-0.1c0.5,0.3,1.2,0.5,1.8,0.5c-1.1-0.7-1.8-1.9-1.8-3.3
	c0-0.7,0.2-1.4,0.5-2c2,2.4,4.9,4,8.2,4.2c-0.1-0.3-0.1-0.6-0.1-0.9c0-2.2,1.8-4,4-4c1.1,0,2.2,0.5,2.9,1.3c0.9-0.2,1.8-0.5,2.5-1
	c-0.3,0.9-0.9,1.7-1.8,2.2c0.8-0.1,1.6-0.3,2.3-0.6C24.7,10.5,24.1,11.2,23.3,11.8z"/>
</svg>
