<?xml version="1.0" encoding="utf-8"?>
<!-- Generator: Adobe Illustrator 25.4.1, SVG Export Plug-In . SVG Version: 6.00 Build 0)  -->
<svg version="1.1" id="Layer_1" xmlns="http://www.w3.org/2000/svg" xmlns:xlink="http://www.w3.org/1999/xlink" x="0px" y="0px"
	 viewBox="0 0 30 30" style="enable-background:new 0 0 30 30;" xml:space="preserve">
<style type="text/css">
	.st0{fill:#8E1414;}
</style>
<g>
	<polygon class="st0" points="13,18 18.2,15 13,12 	"/>
	<path class="st0" d="M15,0C6.7,0,0,6.7,0,15s6.7,15,15,15s15-6.7,15-15S23.3,0,15,0z M24.6,19.8c-0.2,0.9-0.9,1.5-1.8,1.8
		C21.3,22,15,22,15,22s-6.3,0-7.8-0.4c-0.9-0.2-1.5-0.9-1.8-1.8C5,18.3,5,15,5,15s0-3.3,0.4-4.8c0.2-0.9,0.9-1.5,1.8-1.8
		C8.7,8,15,8,15,8s6.3,0,7.8,0.4c0.9,0.2,1.5,0.9,1.8,1.8C25,11.7,25,15,25,15S25,18.3,24.6,19.8z"/>
</g>
</svg>
