<?xml version="1.0" encoding="utf-8"?>
<!-- Generator: Adobe Illustrator 25.4.1, SVG Export Plug-In . SVG Version: 6.00 Build 0)  -->
<svg version="1.1" id="Layer_1" xmlns="http://www.w3.org/2000/svg" xmlns:xlink="http://www.w3.org/1999/xlink" x="0px" y="0px"
	 viewBox="0 0 30 30" style="enable-background:new 0 0 30 30;" xml:space="preserve">
<style type="text/css">
	.st0{fill:#8E1414;}
</style>
<path class="st0" d="M13.9,0c-3.6,0.3-6.8,1.7-9.4,4.2c-3.4,3.3-5,8-4.4,12.6c0.8,6,4.9,10.8,10.6,12.6c4.4,1.3,9.3,0.5,13-2.1
	c4.6-3.3,6.9-8.6,6.2-14.2C29.1,7.2,25,2.4,19.3,0.6C17.6,0.1,15.8-0.1,13.9,0L13.9,0z M15.1,9.3c0.8,0.1,1.2,0.2,1.3,0.4
	c0,0.1,0.1,0.2,0.2,0.3c0.1,0.3,0.1,0.6,0,2.8c0,1.4,0,1.8,0.1,2.1c0.1,0.4,0.4,0.5,0.7,0.4c0.2-0.1,0.8-0.7,1.2-1.3
	c0.8-1.2,1.4-2.2,2-3.7c0.1-0.3,0.3-0.5,0.5-0.5c0.1,0,1,0,2.2,0h2.1l0.2,0.1c0.2,0.1,0.3,0.3,0.3,0.5c0,0.5-0.5,1.4-1.3,2.6
	c-0.1,0.2-0.5,0.7-1,1.3c-0.9,1.2-1.1,1.5-1.2,1.8c-0.2,0.4-0.1,0.7,0.1,1c0.1,0.1,0.5,0.5,0.9,0.9c1.2,1.1,1.7,1.7,2.1,2.3
	c0.3,0.5,0.4,0.8,0.4,1.1c0,0.2-0.2,0.3-0.4,0.4c-0.2,0.1-0.5,0.1-2.4,0.2h-1.7l-0.3-0.1c-0.7-0.2-1.2-0.6-2.2-1.9
	c-0.6-0.7-1-1-1.3-1s-0.6,0.4-0.8,0.8c-0.1,0.3-0.1,0.5-0.2,1.1c0,0.6-0.1,0.8-0.5,0.9c-0.1,0.1-1.9,0.1-2.4,0
	c-0.9-0.1-1.8-0.4-2.7-0.9c-1.2-0.7-2-1.4-2.8-2.4c-1.4-1.8-2.4-3.4-3.6-5.7c-0.4-0.9-1-2.1-1.1-2.4c-0.1-0.3,0-0.5,0.3-0.6
	c0.1,0,0.6,0,1.9-0.1h1.7l0.2,0.1C8,10,8.2,10.2,8.4,10.7c0.2,0.4,1.2,2.5,1.5,3c0.3,0.6,0.7,1,1,1.3c0.4,0.4,0.5,0.4,0.8,0.4
	c0.2,0,0.3-0.1,0.4-0.4c0.3-0.7,0.4-3.1,0.1-4c-0.2-0.5-0.4-0.7-1.1-0.9c-0.1,0-0.1-0.1,0-0.2c0.3-0.4,0.7-0.6,1.7-0.6
	C13.2,9.3,14.7,9.3,15.1,9.3L15.1,9.3z"/>
</svg>
