<?xml version="1.0" encoding="utf-8"?>
<!-- Generator: Adobe Illustrator 25.4.1, SVG Export Plug-In . SVG Version: 6.00 Build 0)  -->
<svg version="1.1" id="Группа_1_00000008130147844124193190000017135212029847956878_"
	 xmlns="http://www.w3.org/2000/svg" xmlns:xlink="http://www.w3.org/1999/xlink" x="0px" y="0px" viewBox="0 0 55 55"
	 style="enable-background:new 0 0 55 55;" xml:space="preserve">
<style type="text/css">
	.st0{fill-rule:evenodd;clip-rule:evenodd;}
</style>
<g>
	<g id="Черенок">
		<g>
			<path class="st0" d="M22.1,40.9L19.2,43l4.4,5.8l2.8-2.1L22.1,40.9z"/>
		</g>
	</g>
	<g id="Слевая">
		<g>
			<path class="st0" d="M32.6,27.7l-13.1,10L10,25.3l9.8-7.4l-2.1-2.7L5.2,24.7l2.1,2.7l11.5,15.2l2.7-2.1l13.1-10L32.6,27.7z"/>
		</g>
	</g>
	<g id="Справа_острый">
		<g>
			<path class="st0" d="M49.7,24.1L49.7,24.1l-11.6-4.9l-2-13l0,0l0,0l-2.3,1.7L33,8.5l0,0L18.3,19.7l2.1,2.7l13.1-10l1.2,9.4l0,0
				l0,0l0,0l0,0l8.2,3.2l-9.7,7.4l2.1,2.7L49.7,24.1L49.7,24.1z"/>
		</g>
	</g>
	<g id="Звезда">
		<g>
			<polygon class="st0" points="30.1,24.4 26.8,24.4 25.7,21.6 25.7,21.6 25.7,21.6 25.7,21.6 24.7,24.4 21.4,24.4 24,26.5 
				23.1,29.7 25.7,27.9 25.7,27.9 28.4,29.7 27.4,26.5 			"/>
		</g>
	</g>
</g>
</svg>
