<?xml version="1.0" encoding="utf-8"?>
<!-- Generator: Adobe Illustrator 25.4.1, SVG Export Plug-In . SVG Version: 6.00 Build 0)  -->
<svg version="1.1" id="Layer_1" xmlns="http://www.w3.org/2000/svg" xmlns:xlink="http://www.w3.org/1999/xlink" x="0px" y="0px"
	 viewBox="0 0 30 30" style="enable-background:new 0 0 30 30;" xml:space="preserve">
<style type="text/css">
	.st0{fill:#8E1414;}
</style>
<path class="st0" d="M15,0C6.7,0,0,6.7,0,15s6.7,15,15,15s15-6.7,15-15S23.3,0,15,0z M22.3,9.5c-0.1,1.4-2.6,11.7-2.6,11.7
	s-0.2,0.6-0.7,0.6c-0.2,0-0.4,0-0.7-0.3c-0.6-0.5-1.9-1.4-3.2-2.3c-0.4,0.3-1.1,1-1.9,1.7c-1.1,1.1-1,0-1,0l0.3-3.6l0,0v-0.1
	c0,0,6.5-5.8,6.6-6.4c0,0,0-0.1-0.1,0c-0.4,0.2-7.9,4.9-8.7,5.4h-0.2L6.5,15c0,0-0.4-0.2-0.3-0.6c0-0.1,0.1-0.2,0.3-0.3
	c0.8-0.6,14.8-5.6,14.8-5.6s0.4-0.1,0.6,0c0.1,0,0.2,0.1,0.2,0.3c0,0.1,0,0.2,0,0.3C22.3,9.3,22.3,9.4,22.3,9.5z"/>
</svg>
